<svg xmlns="http://www.w3.org/2000/svg" xmlns:xlink="http://www.w3.org/1999/xlink" version="1.1" x="0px" y="0px" viewBox="0 0 64 80" style="enable-background:new 0 0 64 64;" xml:space="preserve"><path d="M51,3c-4.418,0-8,3.582-8,8v10c0,1.105-0.895,2-2,2s-2-0.895-2-2v-5h-5v5c0,3.866,3.134,7,7,7s7-3.134,7-7v-3l4,4v13h6v-8h4  V3H51z M50.5,12c-0.828,0-1.5-0.672-1.5-1.5S49.672,9,50.5,9S52,9.672,52,10.5S51.328,12,50.5,12z"/><path d="M20.42,29.872C21.448,30.605,22.679,31,23.942,31C27.288,31,30,28.288,30,24.942V24l-4-4v-7l-3-3l2-2V2l-9,9V5l-3-3l-3,3v7  l-8,8v19l13-13L20.42,29.872z M19.5,16c0.828,0,1.5,0.672,1.5,1.5S20.328,19,19.5,19S18,18.328,18,17.5S18.672,16,19.5,16z"/><polygon points="45.005,35.615 48,30 41.552,34.464 "/><polygon points="44.051,37.404 39.498,35.886 37.652,37.164 43.194,39.011 "/><path d="M42.24,40.801l-6.642-2.214L35,39h-5c-2.209-2.209-5.791-2.209-8,0l-2,2h8l-2,2h-8l-2,2h8l-2,2h-8l-2,2h8l-2,2h-8l-2,2h8  l-2,2H6l-2,2h8l-2,2H4l3,3h26v-6l6.763,2.254c2.96,0.987,6.183-0.46,7.412-3.329L48,53l-7.792-8.391L42.24,40.801z M34.5,49  c-0.828,0-1.5-0.672-1.5-1.5s0.672-1.5,1.5-1.5s1.5,0.672,1.5,1.5S35.328,49,34.5,49z"/><text x="0" y="79" fill="#000000" font-size="5px" font-weight="bold" font-family="'Helvetica Neue', Helvetica, Arial-Unicode, Arial, Sans-serif">Created by Becris</text><text x="0" y="84" fill="#000000" font-size="5px" font-weight="bold" font-family="'Helvetica Neue', Helvetica, Arial-Unicode, Arial, Sans-serif">from the Noun Project</text></svg>