<svg xmlns="http://www.w3.org/2000/svg" xmlns:xlink="http://www.w3.org/1999/xlink" version="1.1" x="0px" y="0px" viewBox="-346 256 100 125" enable-background="new -346 256 100 100" xml:space="preserve"><g><g><path d="M-295.383,327.436c-4.247-0.044-7.955,0.755-11.149,2.153c-2.881,1.263-5.039,2.91-5.662,4.67    c-0.665,1.874,0.486,3.696,3.912,5.139c3.414,1.438,8.829,2.314,12.914,2.45c4.27,0.144,9.821-0.864,13.048-2.347    c2.911-1.338,3.881-3.068,3.267-4.877C-280.4,330.663-286.979,327.524-295.383,327.436z M-286.118,335.482    c0.064,1.079-0.452,2.022-0.964,2.539c-1.412-0.162-2.105-0.243-3.441-0.404c0.525-0.522,1.215-1.445,1.137-2.535    c-0.033-0.476-0.256-0.882-0.622-1.171c-0.395-0.31-0.94-0.474-1.581-0.472c-1.221,0.002-1.964,0.47-2.776,1.767    c-1.233,1.97-2.692,2.696-5.435,2.625c-2.918-0.076-5.125-1.081-5.495-2.676c-0.008-0.038-0.011-0.06-0.019-0.098    c-1.25-0.028-1.879-0.041-3.13-0.07c0.131-0.51,0.196-0.765,0.326-1.273c1.13,0.024,1.698,0.037,2.828,0.062    c0.012-0.048,0.02-0.071,0.031-0.117c0.24-0.993,0.8-1.642,1.272-2.104c1.168,0.184,1.76,0.276,2.941,0.462    c-0.42,0.415-1.073,1.108-1.173,2.143c-0.048,0.49,0.134,0.874,0.542,1.139c0.343,0.223,0.856,0.354,1.425,0.367    c0.416,0.009,0.782-0.056,1.125-0.203c0.583-0.254,1.117-0.748,1.786-1.701c1.25-1.782,2.667-2.484,5.277-2.487    c2.649-0.002,4.696,1.024,5.47,2.678c0.019,0.04,0.029,0.06,0.046,0.1c1.263-0.002,1.896-0.002,3.161-0.003    c0.122,0.525,0.183,0.788,0.306,1.314c-1.218,0-1.827,0.002-3.04,0.002C-286.121,335.412-286.121,335.435-286.118,335.482z"/><polygon points="-277.787,349.395 -292.931,349.398 -292.938,351.821 -272.624,351.816 -276.409,341.233 -279.973,341.152   "/><polygon points="-311.234,341.152 -315.041,341.233 -319.009,351.843 -298.012,351.8 -297.709,349.314 -313.501,349.331   "/><polygon points="-284.465,345.009 -303.54,345.041 -304.107,347.146 -284.16,347.144   "/><polygon points="-288.467,322.038 -301.744,322.023 -302.101,323.675 -288.225,323.707   "/><path d="M-257.182,299.277l-20.726-0.001l-0.001-5.881l-3.897-0.003l-0.002-8.086l2.246,0.001v-4.81l-2.567-0.001    c0,0-0.001-4.811-3.207-8.979c-3.211-4.167-7.061-6.093-7.061-6.093l-0.057-4.536l-1.923,0l-0.003-4.765l-3.529-0.001l0.001,4.766    l-1.924,0.001l0.059,4.535c0,0-3.849,1.926-7.056,6.094c-3.21,4.167-3.206,8.979-3.206,8.979l-2.567,0l-0.001,4.81l2.243,0.001    l0,8.086l-4.246,0l0.003,5.883l-20.695-0.001l0.003,29.902l6.034-0.001l0-9.528h4.268l0.002,9.528l8.391,0.011L-328.295,356    h64.792l-11.243-26.812l7.181-0.012v-9.527h4.268l0.002,9.529l6.116-0.002L-257.182,299.277z M-329.258,313.396l-0.001-3.827    l4.268-0.001l0,3.828H-329.258z M-280.922,309.569v3.827h-4.27v-3.827H-280.922z M-289.737,313.396h-4.267l-0.002-3.827    l4.266-0.003L-289.737,313.396z M-298.552,313.396h-4.268l-0.001-3.828l4.269-0.002L-298.552,313.396z M-285.89,285.34    l0.003,7.962l-4.268,0.001l-0.004-7.964L-285.89,285.34z M-294.021,285.339l0.002,7.964l-4.27-0.001l0-7.963H-294.021z     M-302.153,285.341l0.001,7.961l-4.268,0l0-7.963L-302.153,285.341z M-311.636,309.568h4.27l0,3.828h-4.271V309.568z     M-320.445,309.568h4.266l0.001,3.828h-4.269L-320.445,309.568z M-316.942,323.712v-3.965h4.422l-1.689,3.965H-316.942z     M-268.04,353.301l-55.32,0.078l13.786-33.669h2.184c-1.303,3.837-2.836,8.218-2.836,8.218l2.761,0.033l2.215-8.251h19.474    l2.184,8.404l2.646,0.001l-2.81-8.405h2.239L-268.04,353.301z M-274.299,323.712h-2.744l-1.663-3.965h4.407V323.712z     M-272.111,313.396h-4.27l0.003-3.828l4.269,0.002L-272.111,313.396z M-267.567,313.396l0.001-3.828l4.269,0.001l0.001,3.827    H-267.567z"/></g></g><text x="-346" y="371" fill="#000000" font-size="5px" font-weight="bold" font-family="'Helvetica Neue', Helvetica, Arial-Unicode, Arial, Sans-serif">Created by Luis Prado</text><text x="-346" y="376" fill="#000000" font-size="5px" font-weight="bold" font-family="'Helvetica Neue', Helvetica, Arial-Unicode, Arial, Sans-serif">from the Noun Project</text></svg>